<svg width="28" height="28" viewBox="0 0 28 28" fill="none" xmlns="http://www.w3.org/2000/svg">
<path d="M27.71 26.29C27.8037 26.383 27.8781 26.4936 27.9289 26.6154C27.9797 26.7373 28.0058 26.868 28.0058 27C28.0058 27.132 27.9797 27.2627 27.9289 27.3846C27.8781 27.5064 27.8037 27.617 27.71 27.71C27.617 27.8037 27.5064 27.8781 27.3846 27.9289C27.2627 27.9797 27.132 28.0058 27 28.0058C26.868 28.0058 26.7373 27.9797 26.6154 27.9289C26.4936 27.8781 26.383 27.8037 26.29 27.71L14 15.41L1.71 27.71C1.61704 27.8037 1.50644 27.8781 1.38458 27.9289C1.26272 27.9797 1.13201 28.0058 1 28.0058C0.867988 28.0058 0.737283 27.9797 0.615423 27.9289C0.493564 27.8781 0.382963 27.8037 0.29 27.71C0.196272 27.617 0.121877 27.5064 0.0711086 27.3846C0.0203399 27.2627 -0.00579834 27.132 -0.00579834 27C-0.00579834 26.868 0.0203399 26.7373 0.0711086 26.6154C0.121877 26.4936 0.196272 26.383 0.29 26.29L12.59 14L0.29 1.71C0.101696 1.5217 -0.00409162 1.2663 -0.00409162 1C-0.00409162 0.868143 0.0218799 0.737575 0.0723403 0.615753C0.122801 0.493931 0.196761 0.383241 0.29 0.290002C0.383238 0.196764 0.493929 0.122803 0.615751 0.0723425C0.737573 0.0218822 0.868141 -0.00408936 1 -0.00408936C1.2663 -0.00408936 1.5217 0.101699 1.71 0.290002L14 12.59L26.29 0.290002C26.4783 0.101699 26.7337 -0.00408936 27 -0.00408936C27.2663 -0.00408936 27.5217 0.101699 27.71 0.290002C27.8983 0.478306 28.0041 0.733701 28.0041 1C28.0041 1.2663 27.8983 1.5217 27.71 1.71L15.41 14L27.71 26.29Z" fill="white"/>
</svg>
