<svg width="30" height="24" viewBox="0 0 30 24" fill="none" xmlns="http://www.w3.org/2000/svg">
<path d="M28.9286 12.5H1.07143C0.787268 12.5 0.514746 12.3537 0.313814 12.0932C0.112882 11.8327 0 11.4795 0 11.1111C0 10.7428 0.112882 10.3895 0.313814 10.129C0.514746 9.86855 0.787268 9.72222 1.07143 9.72222H28.9286C29.2127 9.72222 29.4853 9.86855 29.6862 10.129C29.8871 10.3895 30 10.7428 30 11.1111C30 11.4795 29.8871 11.8327 29.6862 12.0932C29.4853 12.3537 29.2127 12.5 28.9286 12.5ZM30 20.8333C30 20.465 29.8871 20.1117 29.6862 19.8512C29.4853 19.5908 29.2127 19.4444 28.9286 19.4444H1.07143C0.787268 19.4444 0.514746 19.5908 0.313814 19.8512C0.112882 20.1117 0 20.465 0 20.8333C0 21.2017 0.112882 21.555 0.313814 21.8154C0.514746 22.0759 0.787268 22.2222 1.07143 22.2222H28.9286C29.2127 22.2222 29.4853 22.0759 29.6862 21.8154C29.8871 21.555 30 21.2017 30 20.8333ZM30 1.38889C30 1.02053 29.8871 0.667264 29.6862 0.406796C29.4853 0.146329 29.2127 0 28.9286 0H1.07143C0.787268 0 0.514746 0.146329 0.313814 0.406796C0.112882 0.667264 0 1.02053 0 1.38889C0 1.75725 0.112882 2.11051 0.313814 2.37098C0.514746 2.63145 0.787268 2.77778 1.07143 2.77778H28.9286C29.2127 2.77778 29.4853 2.63145 29.6862 2.37098C29.8871 2.11051 30 1.75725 30 1.38889Z" fill="black"/>
<path d="M28.9286 15.2778H1.07143C0.787268 15.2778 0.514746 15.1315 0.313814 14.871C0.112882 14.6105 0 14.2572 0 13.8889C0 13.5205 0.112882 13.1673 0.313814 12.9068C0.514746 12.6463 0.787268 12.5 1.07143 12.5H28.9286C29.2127 12.5 29.4853 12.6463 29.6862 12.9068C29.8871 13.1673 30 13.5205 30 13.8889C30 14.2572 29.8871 14.6105 29.6862 14.871C29.4853 15.1315 29.2127 15.2778 28.9286 15.2778ZM30 23.6111C30 23.2428 29.8871 22.8895 29.6862 22.629C29.4853 22.3686 29.2127 22.2222 28.9286 22.2222H1.07143C0.787268 22.2222 0.514746 22.3686 0.313814 22.629C0.112882 22.8895 0 23.2428 0 23.6111C0 23.9795 0.112882 24.3327 0.313814 24.5932C0.514746 24.8537 0.787268 25 1.07143 25H28.9286C29.2127 25 29.4853 24.8537 29.6862 24.5932C29.8871 24.3327 30 23.9795 30 23.6111ZM30 4.16667C30 3.79831 29.8871 3.44504 29.6862 3.18458C29.4853 2.92411 29.2127 2.77778 28.9286 2.77778H1.07143C0.787268 2.77778 0.514746 2.92411 0.313814 3.18458C0.112882 3.44504 0 3.79831 0 4.16667C0 4.53502 0.112882 4.88829 0.313814 5.14876C0.514746 5.40923 0.787268 5.55556 1.07143 5.55556H28.9286C29.2127 5.55556 29.4853 5.40923 29.6862 5.14876C29.8871 4.88829 30 4.53502 30 4.16667Z" fill="white"/>
</svg>
